<svg width="226" height="55" viewBox="0 0 226 55" fill="none" xmlns="http://www.w3.org/2000/svg"><path d="M40.2761 27.4331C40.2761 29.976 39.5218 32.4614 38.1094 34.5758 36.6964 36.6901 34.6887 38.3384 32.3397 39.3112 29.99 40.284 27.4051 40.5387 24.9113 40.0429 22.4169 39.5465 20.1261 38.3222 18.3285 36.524 16.5302 34.7264 15.3059 32.4356 14.8095 29.9411 14.3137 27.4473 14.5684 24.8624 15.5412 22.5128 16.514 20.1638 18.1623 18.1561 20.2767 16.7431 22.391 15.3307 24.8764 14.5763 27.4193 14.5763V6.46411C23.2656 6.46411 19.205 7.69581 15.7513 10.0035 12.2983 12.3114 9.60603 15.5912 8.01655 19.4288 6.42707 23.2658 6.01118 27.4887 6.8215 31.5623 7.63188 35.6365 9.63189 39.3785 12.5691 42.3157 15.5063 45.2529 19.2483 47.2528 23.3219 48.0634 27.3961 48.8733 31.619 48.4577 35.4559 46.8682 39.2936 45.2787 42.5734 42.5865 44.881 39.1328 47.1886 35.6798 48.4207 31.6192 48.4207 27.4654L40.2761 27.4331z" fill="#0089fe"/><path d="M44.4977 27.4329C44.4951 30.8103 43.4913 34.1108 41.6135 36.9175 39.7351 39.7241 37.0674 41.9109 33.9467 43.2017 30.8259 44.4919 27.3922 44.8287 24.0801 44.1681 20.7686 43.5074 17.7267 41.8798 15.3396 39.4914 12.9524 37.1023 11.3274 34.0591 10.6694 30.747 10.0114 27.4349 10.3507 24.0012 11.6435 20.8817 12.9363 17.7616 15.1256 15.0952 17.9336 13.2194 20.7415 11.3436 24.0426 10.3423 27.42 10.3423V0C21.9968.0 16.6951 1.60829 12.1858 4.62158 7.67627 7.63481 4.16183 11.9176 2.08664 16.9284.0114635 21.9392-.531184 27.4523.52735 32.7715 1.58588 38.0907 4.19802 42.9767 8.0334 46.8112 11.8691 50.6456 16.7552 53.2563 22.0744 54.3138 27.3942 55.3713 32.9072 54.8271 37.9174 52.7509 42.9276 50.6746 47.21 47.1589 50.2222 42.649 53.2344 38.1391 54.8413 32.8368 54.84 27.4135L44.4977 27.4329z" fill="url(#paint0_linear)"/><path d="M44.1161 21.4671C41.9953 21.4671 39.9217 20.8382 38.1583 19.6598 36.395 18.4814 35.0207 16.8066 34.2089 14.8474 33.397 12.8875 33.185 10.7316 33.5987 8.6514 34.0123 6.57117 35.0337 4.66044 36.5333 3.16067 38.0329 1.66091 39.9437.639612 42.0238.225856 44.1045-.187965 46.2602.0244397 48.2201.836051 50.1793 1.64773 51.8541 3.02222 53.0325 4.78571 54.2108 6.5492 54.8398 8.6225 54.8398 10.7434 54.8366 13.5863 53.7054 16.3121 51.6951 18.3224 49.6848 20.3327 46.959 21.4639 44.1161 21.4671z" fill="url(#paint1_linear)"/><path d="M67.5038 20.5428C66.0986 19.1556 65.1406 17.3793 64.7541 15.4434 64.3675 13.5068 64.5705 11.4992 65.3352 9.67891 66.1005 7.8586 67.3933 6.30926 69.0468 5.23056 70.7009 4.1518 72.6401 3.59318 74.6142 3.62667 76.2482 3.60204 77.8603 4.00183 79.294 4.787 80.7271 5.57218 81.932 6.71584 82.791 8.10617L79.5591 9.98071C79.0601 9.12107 78.3354 8.41392 77.4641 7.93552 76.5928 7.45706 75.6077 7.22559 74.6142 7.26586 73.7881 7.22972 72.9626 7.3656 72.1921 7.66494 71.421 7.96422 70.7203 8.42045 70.1347 9.00466 69.0513 10.2505 68.454 11.8462 68.454 13.4971 68.454 15.148 69.0513 16.7439 70.1347 17.9895 70.7203 18.5739 71.421 19.0302 72.1921 19.3295 72.9626 19.6288 73.7881 19.7645 74.6142 19.7283 75.6044 19.7671 76.5863 19.5376 77.4563 19.0645 78.327 18.5907 79.0536 17.8913 79.5591 17.0393L82.791 18.9139C81.9339 20.3062 80.7297 21.451 79.296 22.2363 77.8623 23.0217 76.2489 23.4205 74.6142 23.3934 73.2962 23.436 71.984 23.204 70.7604 22.7134 69.5361 22.2228 68.4275 21.4839 67.5038 20.5428z" fill="#3e454b"/><path d="M91.4458 23.3931C89.804 23.3704 88.2209 22.7796 86.9644 21.7221 85.7084 20.6646 84.8571 19.2051 84.5552 17.591 84.2534 15.977 84.5197 14.308 85.3083 12.8678 86.0969 11.4279 87.3599 10.3051 88.8822 9.69031 90.4045 9.07552 92.0935 9.00661 93.661 9.49535 95.2285 9.98402 96.5782 11.0002 97.4818 12.3714 98.3855 13.7424 98.7862 15.3843 98.6169 17.017 98.4475 18.6505 97.7177 20.1747 96.5523 21.3311 95.8865 22.0046 95.0902 22.5353 94.2124 22.8902 93.3339 23.2444 92.3928 23.4157 91.4458 23.3931zM91.4458 19.9736C91.9345 19.9872 92.4205 19.9 92.8743 19.7177 93.3281 19.5354 93.7398 19.2613 94.0831 18.9136 94.7637 18.1838 95.1425 17.2226 95.1425 16.2246 95.1425 15.2265 94.7637 14.2653 94.0831 13.5356 93.3753 12.8549 92.4309 12.4748 91.449 12.4748 90.4671 12.4748 89.5228 12.8549 88.815 13.5356 88.1498 14.2731 87.7814 15.2311 87.7814 16.2246 87.7814 17.2181 88.1498 18.176 88.815 18.9136 89.1576 19.2607 89.568 19.5341 90.0205 19.7164 90.473 19.8987 90.9584 19.9859 91.4458 19.9736z" fill="#3e454b"/><path d="M116.736 19.4308h7.253V23.0118H113V4.00781H116.743L116.736 19.4308z" fill="#3e454b"/><path d="M128.63 17.6661C129.089 19.3725 130.369 20.2516 132.457 20.2516 133.036 20.2859 133.615 20.1805 134.145 19.9439 134.675 19.708 135.14 19.348 135.501 18.8942L138.32 20.5166C136.995 22.4558 135.01 23.4254 132.405 23.4254 131.413 23.472 130.422 23.3155 129.493 22.9658 128.564 22.6155 127.716 22.079 127.001 21.3893 125.702 20.0015 124.979 18.1709 124.979 16.2698 124.979 14.3688 125.702 12.5382 127.001 11.1504 127.67 10.4633 128.476 9.92466 129.368 9.5694 130.259 9.21414 131.214 9.05028 132.173 9.08842 133.092 9.05907 134.006 9.22804 134.854 9.58388 135.701 9.93965 136.463 10.474 137.085 11.1504 138.382 12.5285 139.08 14.3649 139.024 16.2569 139.015 16.7404 138.969 17.222 138.889 17.6984L128.63 17.6661zM135.501 14.9447C135.37 14.1561 134.955 13.4432 134.335 12.9383 133.715 12.4335 132.933 12.1724 132.134 12.204 131.308 12.1478 130.49 12.3954 129.835 12.9002 129.178 13.405 128.729 14.1322 128.572 14.9447H135.501z" fill="#3e454b"/><path d="M151.655 9.43707H155.152V23.0113H151.655V21.4083C151.127 22.0663 150.451 22.5899 149.68 22.9344 148.91 23.2796 148.069 23.4367 147.227 23.3927 146.346 23.4024 145.473 23.2233 144.667 22.8678 143.861 22.5123 143.14 21.9881 142.554 21.3307 141.312 19.9242 140.628 18.113 140.628 16.2371 140.628 14.3613 141.312 12.5501 142.554 11.1436 143.139 10.4816 143.858 9.95244 144.664 9.59124 145.47 9.23004 146.344 9.04523 147.227 9.04924 148.069 9.00522 148.91 9.16223 149.68 9.50721 150.451 9.85226 151.127 10.3755 151.655 11.0337V9.43707zM147.88 20.0379C148.376 20.0554 148.87 19.9701 149.332 19.7878 149.793 19.6055 150.212 19.3295 150.562 18.9778 150.925 18.6165 151.209 18.1841 151.397 17.7083 151.585 17.2326 151.673 16.7226 151.655 16.2113 151.675 15.7032 151.588 15.1971 151.4 14.7246 151.212 14.2527 150.926 13.8254 150.562 13.4706 149.84 12.777 148.878 12.3904 147.877 12.3904 146.875 12.3904 145.913 12.777 145.191 13.4706 144.838 13.8319 144.562 14.2611 144.38 14.7323 144.197 15.2035 144.113 15.7064 144.131 16.2113 144.115 16.72 144.2 17.2261 144.382 17.7012 144.564 18.1763 144.839 18.61 145.191 18.9778 145.542 19.3295 145.963 19.6048 146.425 19.7871 146.888 19.9701 147.383 20.0547 147.88 20.0379z" fill="#3e454b"/><path d="M161.829 11.7709C162.158 10.9606 162.734 10.2747 163.476 9.81058 164.218 9.34647 165.086 9.12767 165.959 9.18532V13.0637C164.953 12.9098 163.926 13.1406 163.083 13.7101 162.65 14.0275 162.307 14.4515 162.087 14.9408 161.867 15.4301 161.778 15.9686 161.829 16.5025V22.9664H158.325V9.39217H161.829V11.7709z" fill="#3e454b"/><path d="M179.21 10.5496C179.719 11.1034 180.111 11.7538 180.364 12.4623 180.616 13.1707 180.722 13.9231 180.678 14.6736v8.3385H177.174V15.1132C177.174 13.2903 176.121 12.3143 174.492 12.3143 172.669 12.3143 171.499 13.4261 171.499 15.682v7.3301H168.002V9.43782H171.499V10.9892C172.346 9.69638 173.703 9.08877 175.545 9.08877 176.225 9.06007 176.903 9.17545 177.534 9.42722 178.166 9.67899 178.737 10.0615 179.21 10.5496z" fill="#3e454b"/><path d="M183.249 5.66256C183.246 5.23446 183.371 4.81527 183.608 4.45827 183.844 4.10126 184.181 3.82254 184.576 3.65751 184.971 3.49255 185.406 3.44867 185.826 3.5316 186.246 3.61447 186.632 3.82035 186.935 4.12305 187.237 4.42576 187.444 4.81165 187.526 5.23161 187.609 5.65164 187.565 6.08679 187.4 6.4818 187.235 6.87681 186.956 7.21391 186.599 7.45016 186.243 7.68635 185.823 7.81118 185.395 7.80859 184.828 7.80355 184.285 7.57582 183.883 7.17441 183.482 6.77307 183.254 6.23016 183.249 5.66256zM183.656 23.0118V9.4375H187.16V23.0118H183.656z" fill="#3e454b"/><path d="M201.575 10.5496C202.084 11.1034 202.476 11.7538 202.728 12.4623 202.981 13.1707 203.087 13.9231 203.043 14.6736v8.3385H199.539V15.1132C199.539 13.2903 198.479 12.3143 196.85 12.3143 195.034 12.3143 193.864 13.4261 193.864 15.682v7.3301H190.36V9.43782H193.864V10.9892C194.704 9.69638 196.068 9.08877 197.91 9.08877 198.59 9.06007 199.268 9.17545 199.899 9.42722 200.531 9.67899 201.102 10.0615 201.575 10.5496z" fill="#3e454b"/><path d="M216.43 9.43739H219.849V22.3653C219.901 23.2747 219.739 24.1842 219.375 25.0193 219.011 25.8545 218.456 26.5927 217.755 27.1744 216.337 28.2953 214.571 28.8809 212.765 28.8292 209.83 28.8292 207.522 27.6915 206.301 25.5197L209.287 23.8067C209.966 25.0995 211.162 25.7071 212.842 25.7071 215.046 25.7071 216.404 24.5113 216.404 22.3653V20.9044C215.905 21.5799 215.246 22.1216 214.487 22.481 213.728 22.841 212.893 23.0078 212.054 22.9664 211.153 22.9864 210.259 22.8177 209.427 22.4713 208.595 22.1254 207.846 21.609 207.225 20.9561 205.95 19.6291 205.254 17.8508 205.286 16.0112 205.266 15.1043 205.427 14.2032 205.76 13.3591 206.093 12.5155 206.591 11.747 207.225 11.0986 207.842 10.4321 208.595 9.9046 209.432 9.55128 210.268 9.19796 211.171 9.02693 212.079 9.04955 212.918 9.00851 213.754 9.17521 214.513 9.53493 215.272 9.89465 215.931 10.4363 216.43 11.1115V9.43739zM215.344 13.3739C214.988 13.0216 214.563 12.7456 214.096 12.5633 213.629 12.3811 213.13 12.2964 212.629 12.3138 212.123 12.2977 211.62 12.3837 211.148 12.5653 210.676 12.7476 210.246 13.0223 209.882 13.3739 209.532 13.7146 209.257 14.125 209.074 14.5775 208.892 15.0306 208.806 15.5167 208.822 16.0047 208.862 16.9866 209.281 17.9148 209.99 18.5948 210.699 19.2755 211.643 19.6549 212.626 19.6549 213.608 19.6549 214.553 19.2755 215.262 18.5948 215.971 17.9148 216.389 16.9866 216.43 16.0047 216.446 15.5141 216.359 15.0255 216.171 14.5717 215.984 14.1179 215.702 13.71 215.344 13.3739z" fill="#3e454b"/><path d="M66.9737 47.5942C65.7714 46.4067 64.9511 44.8864 64.6201 43.2291 64.2885 41.5717 64.4605 39.8536 65.114 38.2945 65.7675 36.736 66.8728 35.4083 68.2871 34.4834 69.7008 33.5577 71.3601 33.0768 73.0498 33.102 74.4492 33.0807 75.8299 33.4239 77.0574 34.0968 78.2842 34.7697 79.3159 35.7503 80.0502 36.9416L77.2836 38.5446C76.8564 37.8084 76.2365 37.2027 75.4899 36.7923 74.7439 36.3825 73.9004 36.184 73.0498 36.2176 72.3413 36.1866 71.6342 36.3036 70.9729 36.5602 70.3116 36.8175 69.7118 37.2092 69.2102 37.7108 68.2723 38.7735 67.7545 40.1425 67.7545 41.5601 67.7545 42.9776 68.2723 44.3467 69.2102 45.4093 69.7118 45.9103 70.3123 46.3007 70.9735 46.5567 71.6348 46.8127 72.3413 46.9284 73.0498 46.896 73.8978 46.931 74.7388 46.7357 75.4847 46.3305 76.23 45.9252 76.8518 45.3253 77.2836 44.5949L80.0502 46.1979C79.3178 47.3912 78.2868 48.3731 77.0593 49.046 75.8318 49.7195 74.4498 50.0614 73.0498 50.0375 71.9231 50.0711 70.8022 49.8714 69.7564 49.4506 68.7105 49.0304 67.7636 48.3983 66.9737 47.5942z" fill="#929497"/><path d="M84.4967 45.131C84.891 46.5983 85.9834 47.3158 87.7739 47.3158 88.2665 47.3423 88.7584 47.2505 89.2083 47.0482 89.6582 46.8459 90.0525 46.5389 90.3595 46.1523L92.777 47.5485C92.2153 48.3636 91.4538 49.0204 90.5651 49.456 89.6769 49.8924 88.6912 50.0921 87.7028 50.0371 86.8528 50.0772 86.0041 49.9428 85.2084 49.6428 84.4127 49.3429 83.6861 48.8827 83.0746 48.2919 82.4987 47.7172 82.0469 47.0308 81.747 46.2751 81.4464 45.5189 81.3048 44.7096 81.3294 43.8964 81.3081 43.0891 81.4496 42.2856 81.745 41.5338 82.0404 40.7821 82.4838 40.0976 83.0488 39.5203 83.6228 38.9347 84.3119 38.4758 85.0733 38.172 85.8348 37.8681 86.6511 37.7266 87.4701 37.7557 88.2581 37.7311 89.0422 37.8759 89.7687 38.1804 90.4959 38.4848 91.1494 38.9418 91.6846 39.5203 92.7983 40.7006 93.4001 42.274 93.3588 43.8964 93.3529 44.3101 93.3142 44.7232 93.2424 45.131H84.4967zM90.3854 42.804C90.2742 42.1266 89.9187 41.5138 89.386 41.0801 88.8541 40.647 88.1818 40.4233 87.496 40.4511 86.7882 40.4027 86.0875 40.6153 85.5264 41.0491 84.9653 41.4828 84.5827 42.1072 84.4515 42.804H90.3854z" fill="#929497"/><path d="M105.091 39.036C105.525 39.5124 105.859 40.0702 106.074 40.6772 106.29 41.2848 106.382 41.9286 106.345 42.5718V49.6821H103.346V42.9402C103.382 42.6248 103.348 42.3048 103.246 42.0042 103.144 41.703 102.976 41.4283 102.756 41.2001 102.536 40.9713 102.267 40.7942 101.97 40.6817 101.673 40.5692 101.355 40.5233 101.038 40.5485 99.4802 40.5485 98.4524 41.4987 98.4524 43.4315V49.7144H95.4531V38.0793H98.4524V39.3721C99.1763 38.2732 100.34 37.7432 101.924 37.7432 102.513 37.7199 103.101 37.8234 103.647 38.0464 104.194 38.2694 104.686 38.6068 105.091 39.036z" fill="#929497"/><path d="M115.563 40.9617H112.932V45.8032C112.932 47.0636 113.837 47.096 115.563 46.9925V49.7139C111.446 50.1793 109.933 48.9899 109.933 45.8355V40.994H107.903V38.1111H109.965V35.7647L112.965 34.8533V38.0852H115.595L115.563 40.9617z" fill="#929497"/><path d="M119.867 45.131C120.262 46.5983 121.354 47.3158 123.145 47.3158 123.637 47.341 124.128 47.2492 124.578 47.0469 125.027 46.8446 125.422 46.5376 125.73 46.1523L128.148 47.5485C127.586 48.363 126.824 49.0197 125.936 49.4554 125.047 49.8911 124.062 50.0914 123.073 50.0371 122.224 50.0772 121.375 49.9428 120.579 49.6428 119.783 49.3429 119.057 48.8827 118.445 48.2919 117.869 47.7172 117.417 47.0308 117.118 46.2751 116.817 45.5189 116.675 44.7096 116.7 43.8964 116.679 43.0891 116.82 42.2856 117.116 41.5338 117.411 40.7821 117.854 40.0976 118.419 39.5203 118.993 38.9347 119.682 38.4758 120.444 38.172 121.205 37.8681 122.022 37.7266 122.841 37.7557 123.629 37.7311 124.413 37.8759 125.14 38.1804 125.866 38.4848 126.52 38.9418 127.055 39.5203 128.169 40.7006 128.771 42.274 128.729 43.8964 128.724 44.3101 128.685 44.7232 128.613 45.131H119.867zM125.756 42.804C125.645 42.1266 125.289 41.5138 124.757 41.0801 124.225 40.647 123.552 40.4233 122.867 40.4511 122.159 40.4027 121.458 40.6153 120.897 41.0491 120.336 41.4828 119.953 42.1072 119.822 42.804H125.756z" fill="#929497"/><path d="M133.881 40.0765C134.161 39.3796 134.653 38.7882 135.288 38.3868 135.922 37.9854 136.667 37.794 137.417 37.8399V41.1883C136.555 41.0603 135.675 41.2613 134.954 41.7506 134.583 42.0234 134.29 42.388 134.102 42.8081 133.913 43.2283 133.837 43.6904 133.881 44.1487V49.7077H130.882V38.0726H133.881V40.0765z" fill="#929497"/><path d="M163.313 37.4263H143.61C142.572 37.4263 141.729 38.2685 141.729 39.3073V42.0092C141.729 43.048 142.572 43.8902 143.61 43.8902H163.313C164.351 43.8902 165.194 43.048 165.194 42.0092V39.3073C165.194 38.2685 164.351 37.4263 163.313 37.4263z" fill="#929497"/><path fill-rule="evenodd" clip-rule="evenodd" d="M163.405 39.7954C163.49 39.7107 163.538 39.5957 163.538 39.4754V39.0229H163.085C162.965 39.0229 162.85 39.0708 162.765 39.1555 162.68 39.2401 162.633 39.3552 162.633 39.4754 162.633 39.5957 162.68 39.7107 162.765 39.7954 162.85 39.8801 162.965 39.9279 163.085 39.9279 163.205 39.9279 163.32 39.8801 163.405 39.7954zM145.387 41.9828C145.252 42.0248 145.108 42.0364 144.967 42.0158H144.954C144.813 42.0364 144.669 42.0248 144.533 41.9828 144.397 41.9408 144.272 41.8684 144.167 41.7721 144.062 41.6751 143.981 41.5568 143.928 41.4243 143.875 41.2918 143.852 41.1496 143.861 41.0074V39.553H144.385V40.988C144.376 41.0675 144.385 41.1476 144.409 41.2233 144.434 41.2996 144.474 41.3694 144.527 41.4288 144.581 41.4883 144.646 41.5355 144.719 41.5678 144.791 41.6008 144.87 41.6176 144.95 41.6176 145.03 41.6176 145.11 41.6008 145.182 41.5678 145.255 41.5355 145.32 41.4883 145.374 41.4288 145.427 41.3694 145.467 41.2996 145.492 41.2233 145.516 41.1476 145.524 41.0675 145.516 40.988V39.553H146.059V41.0074C146.068 41.1496 146.045 41.2918 145.992 41.4243 145.939 41.5568 145.858 41.6751 145.753 41.7721 145.649 41.8684 145.524 41.9408 145.387 41.9828zM149.239 41.518V41.977L147.423 41.9705V41.5568L148.567 40.0055H147.423V39.553H149.239V39.9667L148.102 41.518H149.239zM152.299 41.8639C152.12 41.9692 151.915 42.0216 151.709 42.0158H151.631C151.46 42.0216 151.289 41.9918 151.129 41.9291 150.97 41.8664 150.824 41.7714 150.703 41.6505 150.582 41.529 150.486 41.3849 150.423 41.2252 150.36 41.0656 150.33 40.8949 150.335 40.7236 150.341 40.5523 150.381 40.3836 150.454 40.2285 150.527 40.0733 150.631 39.935 150.76 39.8212 150.888 39.7081 151.039 39.6222 151.202 39.5692 151.365 39.5168 151.538 39.4981 151.709 39.5142 151.915 39.5078 152.119 39.5595 152.297 39.6635 152.476 39.7676 152.621 39.9195 152.717 40.1024L152.271 40.3222C152.217 40.2175 152.135 40.1302 152.035 40.0688 151.935 40.0068 151.82 39.9738 151.702 39.9731 151.504 39.9912 151.321 40.0824 151.187 40.2285 151.053 40.3752 150.979 40.5665 150.979 40.765 150.979 40.9634 151.053 41.1548 151.187 41.3015 151.321 41.4476 151.504 41.5387 151.702 41.5568 151.82 41.5562 151.935 41.5232 152.035 41.4611 152.135 41.3997 152.217 41.3125 152.271 41.2078L152.717 41.4211C152.622 41.6053 152.477 41.7585 152.299 41.8639zM155.302 39.553 156.233 41.977H155.645L155.496 41.5633H154.462L154.307 41.977H153.719L154.656 39.553H155.302zM154.566 41.1108H155.354L154.94 40.0701 154.566 41.1108zM158.825 41.0526 159.717 42.5846 159.123 42.5781 158.302 41.1108h-.375V41.977H157.41V39.553H158.631C158.73 39.5562 158.828 39.5795 158.918 39.6202 159.008 39.6616 159.089 39.7204 159.156 39.7928 159.224 39.8659 159.276 39.9512 159.31 40.0443 159.344 40.1373 159.36 40.2362 159.355 40.3351 159.367 40.498 159.32 40.6603 159.223 40.7921 159.126 40.9233 158.985 41.0158 158.825 41.0526zM157.927 40.6454H158.47L158.444 40.6519C158.467 40.6583 158.492 40.6583 158.515 40.6519 158.602 40.6422 158.681 40.5989 158.735 40.531 158.79 40.4631 158.815 40.3765 158.806 40.2899 158.796 40.2033 158.753 40.1244 158.685 40.0701 158.617 40.0152 158.531 39.99 158.444 39.999H157.927V40.6454zM162.141 41.8729C161.984 41.9278 161.817 41.9505 161.65 41.9382H160.693V39.5142H161.65C161.817 39.5019 161.984 39.5246 162.141 39.5795 162.299 39.6351 162.444 39.7224 162.566 39.8361 162.688 39.9499 162.786 40.0876 162.852 40.2408 162.92 40.394 162.954 40.5594 162.954 40.7262 162.954 40.893 162.92 41.0584 162.852 41.2116 162.786 41.3648 162.688 41.5025 162.566 41.6163 162.444 41.73 162.299 41.8173 162.141 41.8729zM161.211 41.4792H161.65L161.715 41.4663C161.81 41.4631 161.903 41.4411 161.989 41.401 162.075 41.3616 162.153 41.3054 162.217 41.2356 162.282 41.1657 162.331 41.0843 162.364 40.9951 162.396 40.9059 162.411 40.8115 162.406 40.7165 162.413 40.6822 162.413 40.6473 162.406 40.6131 162.39 40.4276 162.302 40.2563 162.16 40.1354 162.018 40.0145 161.836 39.9544 161.65 39.9667H161.211V41.4792z" fill="#fff"/><path d="M101 14h9v3h-9z" fill="#3e454b"/><defs><linearGradient id="paint0_linear" x1="12.4819" y1="38.7383" x2="56.2104" y2="5.65594" gradientUnits="userSpaceOnUse"><stop stop-color="#0097fe"/><stop offset="1" stop-color="#00efb7"/></linearGradient><linearGradient id="paint1_linear" x1="33.3925" y1="10.7434" x2="54.8398" y2="10.7434" gradientUnits="userSpaceOnUse"><stop stop-color="#ffc837"/><stop offset="1" stop-color="#ff8008"/></linearGradient></defs></svg>