<svg width="220" height="196" viewBox="0 0 220 196" fill="none" xmlns="http://www.w3.org/2000/svg"><path fill-rule="evenodd" clip-rule="evenodd" d="M173.247 45.62C196.101 79.7237 186.892 125.869 152.679 148.687 118.467 171.506 72.2048 162.357 49.3521 128.253 26.4982 94.1491 35.7068 48.0045 69.9194 25.1861 104.132 2.3677 150.393 11.5163 173.247 45.62z" fill="#000" fill-opacity=".01"/><path fill-rule="evenodd" clip-rule="evenodd" d="M173.247 66.3617C196.101 100.465 186.892 146.611 152.679 169.429 118.467 192.247 72.2048 183.099 49.3521 148.995 26.4982 114.891 35.7068 68.7462 69.9194 45.9278 104.132 23.1094 150.393 32.258 173.247 66.3617z" fill="#eaeaea"/><mask id="mask0" mask-type="alpha" maskUnits="userSpaceOnUse" x="36" y="33" width="150" height="149"><path fill-rule="evenodd" clip-rule="evenodd" d="M173.247 66.3617C196.101 100.465 186.892 146.611 152.679 169.429 118.467 192.247 72.2048 183.099 49.3521 148.995 26.4982 114.891 35.7068 68.7462 69.9194 45.9278 104.132 23.1094 150.393 32.258 173.247 66.3617z" fill="#fff"/></mask><g mask="url(#mask0)"><ellipse cx="109.071" cy="103.001" rx="82.7527" ry="84.6642" transform="rotate(-8 109.071 103.001)" fill="#5e9ce3"/><path fill-rule="evenodd" clip-rule="evenodd" d="M84.9998 177.059C84.9998 177.059 67.9122 151.142 79.5081 126.192 83.5933 117.402 88.5684 109.738 93.1778 102.637 101.653 89.5815 108.891 78.4304 107.09 65.6886 104.274 45.779 96.1152 34.7715 96.1152 34.7715L100.957 34.091C100.957 34.091 105.056 38.7641 108.673 48.3113 112.7 58.9395 114.657 70.7801 113.178 80.3627 111.549 90.9117 108.517 97.0295 105.077 103.97v0C102.335 109.503 99.3343 115.558 96.5786 124.798 90.366 145.628 100.638 169.295 105.17 174.224 109.703 179.154 113.848 182.362 113.848 182.362 113.848 182.362 104.693 183.098 99.764 182.192 94.8355 181.287 84.9998 177.059 84.9998 177.059zM75.6351 42.5507C75.6351 42.5507 91.3546 50.5659 91.5524 73.2111 91.7446 95.203 74.7012 110.138 61.9361 121.324L61.421 121.776C53.5345 128.689 52.5383 140.231 52.4836 146.422 52.4442 150.872 54.5072 156.042 54.5072 156.042 54.5072 156.042 49.7575 149.955 45.0757 141.937 40.394 133.919 37.7224 119.589 37.7224 119.589 37.7224 119.589 38.4487 113.99 53.2051 107.943 79.2805 97.2572 83.4871 79.8927 78.8159 65.1829 74.1446 50.4731 64.3482 50.0406 64.3482 50.0406 64.3482 50.0406 65.179 48.7217 70.9177 45.3084 76.6564 41.8951 75.6351 42.5507 75.6351 42.5507zM124.543 91.9748C118.937 97.0417 110.57 114.54 110.543 132.952 110.515 151.363 119.239 152.138 128.989 145.574 138.739 139.01 138.818 117.856 136.895 104.176 134.973 90.4961 130.149 86.9079 124.543 91.9748z" fill="#fff" fill-opacity=".8"/><g filter="url(#filter0_f)"><path fill-rule="evenodd" clip-rule="evenodd" d="M208.875 57.2351C204.704 51.0021 191.992 52.1229 171.087 60.5698 170.893 60.648 170.692 60.7354 170.497 60.8149 171.727 62.1778 172.915 63.5944 174.055 65.0651 183.708 61.2253 190.347 59.4821 194.887 58.8441 202.507 57.7731 204.238 59.7976 204.486 60.167 204.885 60.7636 207.802 66.5898 187.583 87.156 173.319 101.663 152.532 118.292 129.048 133.979 105.566 149.666 82.2421 162.505 63.3742 170.129 36.6259 180.938 32.3538 176.018 31.9549 175.421 31.5553 174.824 28.6385 168.998 48.8581 148.432 49.3614 147.92 49.8747 147.405 50.3938 146.888 49.4855 145.268 48.644 143.625 47.8699 141.965 46.9192 142.897 45.993 143.82 45.0922 144.736 29.2917 160.808 23.3949 172.119 27.5655 178.353 29.8743 181.804 34.7995 183.001 42.2849 181.949 48.3211 181.1 56.0217 178.79 65.3526 175.018 84.545 167.263 108.208 154.245 131.982 138.364 155.756 122.482 176.839 105.609 191.348 90.8516 207.149 74.7796 213.045 63.4693 208.875 57.2351z" fill="#000" fill-opacity=".755436"/></g></g><ellipse cx="89.956" cy="80.5219" rx="49.3086" ry="49.2819" transform="rotate(-8 89.956 80.5219)" fill="url(#paint0_radial)"/><path fill-rule="evenodd" clip-rule="evenodd" d="M202.769 53.954C198.601 47.7371 185.891 48.8591 164.988 57.2925 164.794 57.3706 164.593 57.4579 164.398 57.5373 165.627 58.8965 166.814 60.3095 167.954 61.7762 177.606 57.9426 184.244 56.2014 188.784 55.5635 196.403 54.4927 198.133 56.5118 198.38 56.8803 198.779 57.4754 201.694 63.2869 181.472 83.8107 167.207 98.2879 146.419 114.884 122.935 130.541 99.4518 146.198 76.1287 159.014 57.2621 166.626 30.5158 177.417 26.2461 172.51 25.8474 171.915 25.4481 171.32 22.5336 165.508 42.7557 144.984 43.259 144.474 43.7724 143.96 44.2916 143.444 43.384 141.828 42.5431 140.189 41.7696 138.533 40.8189 139.463 39.8925 140.385 38.9917 141.299 23.1893 157.338 17.2901 168.623 21.458 174.841 23.7653 178.283 28.6891 179.476 36.1733 178.424 42.2086 177.576 49.9084 175.268 59.2387 171.503 78.4296 163.76 102.092 150.765 125.867 134.914 149.641 119.063 170.725 102.223 185.235 87.4963 201.038 71.4575 206.937 60.1721 202.769 53.954z" fill="#fff"/><mask id="mask1" mask-type="alpha" maskUnits="userSpaceOnUse" x="20" y="50" width="185" height="129"><path fill-rule="evenodd" clip-rule="evenodd" d="M202.769 53.954C198.601 47.7371 185.891 48.8591 164.988 57.2925 164.794 57.3706 164.593 57.4579 164.398 57.5373 165.627 58.8965 166.814 60.3095 167.954 61.7762 177.606 57.9426 184.244 56.2014 188.784 55.5635 196.403 54.4927 198.133 56.5118 198.38 56.8803 198.779 57.4754 201.694 63.2869 181.472 83.8107 167.207 98.2879 146.419 114.884 122.935 130.541 99.4518 146.198 76.1287 159.014 57.2621 166.626 30.5158 177.417 26.2461 172.51 25.8474 171.915 25.4481 171.32 22.5336 165.508 42.7557 144.984 43.259 144.474 43.7724 143.96 44.2916 143.444 43.384 141.828 42.5431 140.189 41.7696 138.533 40.8189 139.463 39.8925 140.385 38.9917 141.299 23.1893 157.338 17.2901 168.623 21.458 174.841 23.7653 178.283 28.6891 179.476 36.1733 178.424 42.2086 177.576 49.9084 175.268 59.2387 171.503 78.4296 163.76 102.092 150.765 125.867 134.914 149.641 119.063 170.725 102.223 185.235 87.4963 201.038 71.4575 206.937 60.1721 202.769 53.954z" fill="#fff"/></mask><g mask="url(#mask1)"/><g filter="url(#filter1_i)"><path fill-rule="evenodd" clip-rule="evenodd" d="M202.769 53.954C198.601 47.7371 185.891 48.8591 164.988 57.2925 164.794 57.3706 164.593 57.4579 164.398 57.5373 165.627 58.8965 166.814 60.3095 167.954 61.7762 177.606 57.9426 184.244 56.2014 188.784 55.5635 196.403 54.4927 198.133 56.5118 198.38 56.8803 198.779 57.4754 201.694 63.2869 181.472 83.8107 167.207 98.2879 146.419 114.884 122.935 130.541 99.4518 146.198 76.1287 159.014 57.2621 166.626 30.5158 177.417 26.2461 172.51 25.8474 171.915 25.4481 171.32 22.5336 165.508 42.7557 144.984 43.259 144.474 43.7724 143.96 44.2916 143.444 43.384 141.828 42.5431 140.189 41.7696 138.533 40.8189 139.463 39.8925 140.385 38.9917 141.299 23.1893 157.338 17.2901 168.623 21.458 174.841 23.7653 178.283 28.6891 179.476 36.1733 178.424 42.2086 177.576 49.9084 175.268 59.2387 171.503 78.4296 163.76 102.092 150.765 125.867 134.914 149.641 119.063 170.725 102.223 185.235 87.4963 201.038 71.4575 206.937 60.1721 202.769 53.954z" fill="url(#paint1_linear)"/></g><defs><filter id="filter0_f" x="-9.0696" y="17.9328" width="254.579" height="199.723" filterUnits="userSpaceOnUse" color-interpolation-filters="sRGB"><feFlood flood-opacity="0" result="BackgroundImageFix"/><feBlend mode="normal" in="SourceGraphic" in2="BackgroundImageFix" result="shape"/><feGaussianBlur stdDeviation="17.6688" result="effect1_foregroundBlur"/></filter><filter id="filter1_i" x="19.1626" y="48.002" width="184.902" height="130.792" filterUnits="userSpaceOnUse" color-interpolation-filters="sRGB"><feFlood flood-opacity="0" result="BackgroundImageFix"/><feBlend mode="normal" in="SourceGraphic" in2="BackgroundImageFix" result="shape"/><feColorMatrix in="SourceAlpha" type="matrix" values="0 0 0 0 0 0 0 0 0 0 0 0 0 0 0 0 0 0 127 0" result="hardAlpha"/><feOffset dx="-1" dy="-3"/><feGaussianBlur stdDeviation="1"/><feComposite in2="hardAlpha" operator="arithmetic" k2="-1" k3="1"/><feColorMatrix type="matrix" values="0 0 0 0 0 0 0 0 0 0 0 0 0 0 0 0 0 0 0.147236 0"/><feBlend mode="normal" in2="shape" result="effect1_innerShadow"/></filter><radialGradient id="paint0_radial" cx="0" cy="0" r="1" gradientUnits="userSpaceOnUse" gradientTransform="translate(89.956 80.5219) rotate(90) scale(49.2819 49.3086)"><stop stop-color="#fff" stop-opacity=".90289"/><stop offset="1" stop-color="#fff" stop-opacity=".01"/></radialGradient><linearGradient id="paint1_linear" x1="143.599" y1="57.301" x2="183.673" y2="7.31732" gradientUnits="userSpaceOnUse"><stop stop-color="#fff" stop-opacity=".01"/><stop offset="1" stop-opacity=".5"/></linearGradient></defs></svg>